# xmcd
#
# Track frame offsets: 
#        150
#        34017
#        60254
#        90558
#        141519
#        172241
#        174436
#        197117
#
# Disc length: 2949 seconds
#
# Revision: 0
# Processed by: cddbd v1.4PL0 Copyright (c) Steve Scherf et al.
# Submitted via: ExactAudioCopy v0.90b4
#
DISCID=6b0b8308
DTITLE=Walter Trout And The Free Radicals - Live Trout - CD One
DYEAR=2000
DGENRE=Blues
TTITLE0=I Can Tell
TTITLE1=Walkin´ In The Rain
TTITLE2=Say What You Mean
TTITLE3=The Reason I´m Gone
TTITLE4=Come Home
TTITLE5=Walter Speaks
TTITLE6=Livin´ Every Day
TTITLE7=Let Me Know
EXTD=
EXTT0=
EXTT1=
EXTT2=
EXTT3=
EXTT4=
EXTT5=
EXTT6=
EXTT7=
PLAYORDER=
